# xmcd
#
# Track frame offsets:
#	150
#	17863
#	36123
#	51682
#	69276
#	86884
#	104861
#	123516
#	140632
#	153598
#	166100
#	179732
#	191485
#	205374
#	223319
#	224499
#	225808
#	227013
#	228357
#
# Disc length: 3058 seconds
#
# Revision: 1
# Processed by: cddbd v1.5.2PL0 Copyright (c) Steve Scherf et al.
# Submitted via: audiograbber 1.83.01
#
DISCID=230bf013
DTITLE=Compilation - CDX Volume 434
DYEAR=2007
DGENRE=Country
TTITLE0=Bellamy Brothers - Drug Problem
TTITLE1=Phil Vassar - Love Is a Beautiful Thing
TTITLE2=Hal Ketchum - One More Night
TTITLE3=Star De Azlan - She's Pretty
TTITLE4=Jon Bon Jovi (ft Leann Rimes) - Til We Ain't Strangers Anymore
TTITLE5=Luke Bryan - We Rode In Trucks
TTITLE6=Rascal Flatts - Winner At A Losing Game
TTITLE7=Jamie Lee Thompson - Dear God
TTITLE8=Western Underground - Unbridled
TTITLE9=Katy Kiefer - Caught Up In Your Gravity
TTITLE10=Brian Stace - Honey Get Your Clothes Off (Daddy's Coming Home)
TTITLE11=Troy Syfrett - It's Only Heaven To Win
TTITLE12=Sable - Love Hasn't Found Em Yet
TTITLE13=Kolt Barber - Twang
TTITLE14=Jack Ingram - CMA Liners
TTITLE15=Carolyn Dawn Johnson - CMA Liners
TTITLE16=Miranda Lambert - CMA Liners
TTITLE17=Little Big Town - CMA Liners
TTITLE18=Taylor Swift - CMA Liners
EXTD=
EXTT0=
EXTT1=
EXTT2=
EXTT3=
EXTT4=
EXTT5=
EXTT6=
EXTT7=
EXTT8=
EXTT9=
EXTT10=
EXTT11=
EXTT12=
EXTT13=
EXTT14=
EXTT15=
EXTT16=
EXTT17=
EXTT18=
PLAYORDER=
